<?xml version="1.0" encoding="utf-8"?>
<!-- Generator: Adobe Illustrator 24.0.0, SVG Export Plug-In . SVG Version: 6.00 Build 0)  -->
<svg version="1.1" id="Layer_1" xmlns="http://www.w3.org/2000/svg" xmlns:xlink="http://www.w3.org/1999/xlink" x="0px" y="0px"
	 viewBox="0 0 1902.7 856.7" style="enable-background:new 0 0 1902.7 856.7;" xml:space="preserve">
<style type="text/css">
	.st0{opacity:0.4;}
	.st1{enable-background:new    ;}
	.st2{fill:none;stroke:#F2F2F2;stroke-width:3;stroke-miterlimit:10;}
</style>
<title>apply now</title>
<g>
	<g id="Layer_1_1_">
		<g class="st0">
			<g class="st1">
				<path class="st2" d="M53.6,455.6c-1.2,0.4-3.4,1.1-6.5,2.2c-3.1,1-6.3,2.2-9.6,3.4c-3.3,1.2-6.4,2.3-9.2,3.1
					c-2.9,0.8-4.7,1.2-5.5,1.2c-1.6,0-3.3-0.8-4.9-2.5l0.6-3.1l-6.2-1.2l9.2-10.5l-14.8,5.5v-1.2l3.1-4.3l-4.9-0.6l1.8-3.7
					c-2.1-0.4-3.5-1.5-4.3-3.4c-0.8-1.8-1.4-3.6-1.8-5.2l1.8-3.7c-1.6-1.6-2.5-3.7-2.5-6.2s0.3-4.2,0.9-5.2c0.6-1,2-2.4,4-4
					c3.3-2.9,8.5-5.6,15.7-8.3c7.2-2.7,15-5.1,23.4-7.4c8.4-2.3,16.5-4.3,24.3-6.2c7.8-1.8,14.2-3.4,19.1-4.6
					c4.1-9.4,8.6-18.8,13.6-28c4.9-9.2,9.6-18.6,14.2-28c4.1-8.2,8.2-16.2,12.3-24c4.1-7.8,8.4-15.8,12.9-24l54.9-101.7
					c7-12.7,14.2-26,21.6-39.8c7.4-13.8,16-26,25.9-36.7c5.8-5.7,12.2-9,19.4-9.9c7.2-0.8,14.5-1.2,21.9-1.2l1.2,4.3
					c1.2-1.2,2.7-1.8,4.3-1.8l1.8,3.1c1.6-1.6,2.7-3.1,3.1-4.3l1.2,1.8l-3.1,24.7c-0.8,5.3-2.1,10.6-3.7,15.7
					c-1.6,5.1-3.1,10.4-4.3,15.7c-2.9,11.1-5.5,22.3-8,33.6c-2.5,11.3-4.9,22.5-7.4,33.6c-6.6,28.4-12.1,56.6-16.6,84.8
					c-4.5,28.2-8.8,56.6-12.9,85.4c-2.9,19.7-5,39.4-6.5,59.2c-1.4,19.7-3.2,39.4-5.2,59.2c-0.4,2.5-0.6,4.8-0.6,7.1
					c0,2.3,0,4.6,0,7.1c0,2.5,0.1,5.6,0.3,9.6c0.2,3.9,0.4,7.9,0.6,12c0.2,4.1,0.5,8.1,0.9,12c0.4,3.9,1,6.7,1.8,8.3
					c0-39,2.1-77.9,6.2-116.5c4.1-38.6,9.3-77,15.7-115.3c6.4-38.2,13.7-76.3,21.9-114.3c8.2-38,16.6-75.9,25.3-113.7
					c0.4-1.2,0.7-2.5,0.9-3.7c0.2-1.2,0.9-2.3,2.2-3.1l3.7,6.8l1.8-3.7c3.7,0.8,5.5,2.9,5.5,6.2c0,12.3-1.8,24.7-5.5,37
					s-7,24.5-9.9,36.4c-3.3,12.3-6.1,24.8-8.3,37.3c-2.3,12.5-4.6,25.2-7.1,37.9c-5.8,30.8-11.5,61.6-17.3,92.5
					c-5.8,30.8-10.1,61.8-12.9,93.1c-1.2,14.4-2.7,28.8-4.3,43.1c-1.6,14.4-2.5,28.8-2.5,43.1c0,13.6,0.7,27,2.2,40.4
					c1.4,13.3,3,26.8,4.6,40.4l-1.8,4.3l-3.7-4.3l-1.8,1.8c-0.8,0-1.5-0.2-2.2-0.6c-0.6-0.4-1.3-0.8-2.2-1.2l-3.1,2.5h-2.5
					c-4.9,0-8.8-0.5-11.7-1.5c-2.9-1-6.2-3.2-9.9-6.5c-6.2-4.9-10.9-10.8-14.2-17.6c-3.3-6.8-5.8-13.9-7.4-21.3
					c-1.6-7.4-2.7-15-3.1-22.8c-0.4-7.8-0.6-15.4-0.6-22.8c0-5.7,0.2-11.3,0.6-16.6c0.4-5.3,0.8-10.9,1.2-16.6
					c0.8-9.4,1.2-18.8,1.2-28c0-9.2,1-18.6,3.1-28c-3.3-0.4-6.5-0.7-9.6-0.9c-3.1-0.2-6.3-0.3-9.6-0.3c-7.8,0-15.5,0.5-23.1,1.5
					c-7.6,1-15.3,2.2-23.1,3.4c-2.9,4.5-5.3,9.1-7.4,13.9c-2.1,4.7-4.1,9.4-6.2,13.9c-4.5,9-8.9,18.1-13.3,27.1
					c-4.3,9-8.9,17.9-13.9,26.5c-1.6,2.9-2.9,5-3.7,6.5c-0.8,1.4-1.8,2.5-3.1,3.1c-1.2,0.6-2.7,1.1-4.3,1.5c-1.6,0.4-3.9,1-6.8,1.8
					l-0.6-7.4c-1.2,1.6-2.2,3.3-2.8,4.9s-1.3,3.5-2.2,5.5l-1.8-4.3l-4.3,1.8c0-2.1,0-3.9,0-5.5c0-1.6,0.4-3.3,1.2-4.9h-1.2
					l-4.3,10.5l-1.8-3.1l-5.5,1.2l-0.6-9.2l-3.7,5.5c-1.2-0.8-2.9-1.9-4.9-3.4c-2.1-1.4-3.1-3-3.1-4.6c0-9.4,2.3-19.9,6.8-31.4
					c4.5-11.5,8.6-21.4,12.3-29.6v-1.2L53.6,455.6z M14.2,424.8c1.6,0,4-0.4,7.1-1.2c3.1-0.8,6.4-1.8,9.9-3.1
					c3.5-1.2,6.8-2.5,9.9-3.7c3.1-1.2,5.2-2.3,6.5-3.1c-5.8,1.6-11.4,3.2-17,4.6C25,419.7,19.5,421.9,14.2,424.8z M20.9,434.6
					c0.8,0.4,1.2,1,1.2,1.8c2.1-0.8,3.9-1.6,5.5-2.5c1.6-0.8,3.5-1.6,5.5-2.5c2.1,0,3.5-0.8,4.3-2.5
					C31.8,430.3,26.3,432.2,20.9,434.6z M65.3,434.6l-1.2-1.2c-2.1,0-5,0.5-8.9,1.5c-3.9,1-7.9,2.4-12,4c-4.1,1.6-8.1,3.2-12,4.6
					c-3.9,1.4-6.7,2.8-8.3,4h4.3c1.6,0,4.2-0.5,7.7-1.5c3.5-1,7.3-2.3,11.4-3.7c4.1-1.4,7.9-2.9,11.4-4.3
					C61.1,436.6,63.7,435.5,65.3,434.6z M40.7,429.1v-0.6c-0.4,0-0.8,0.2-1.2,0.6H40.7z M39.4,450.7v0.6l1.2-0.6H39.4z M49.3,512.3
					c-0.8,0.4-1.4,1-1.8,1.8l0.6,1.2C48.1,514.1,48.5,513.1,49.3,512.3z M222.5,242.9c-1.6,3.3-4.4,8.6-8.3,16
					c-3.9,7.4-8.3,15.8-13.3,25.3c-4.9,9.5-10,19.3-15.1,29.6c-5.1,10.3-9.9,20-14.2,29.3s-7.9,17.3-10.8,24
					c-2.9,6.8-4.3,11.2-4.3,13.3c7.4,0,14.9,0.4,22.5,1.2c7.6,0.8,14.7,3.3,21.3,7.4c0.8-8.2,1.9-16.5,3.4-25c1.4-8.4,2.8-16.7,4-25
					C211.8,307,216.7,275,222.5,242.9z M209.6,433.4h-0.6c-2.1,14.4-3.5,28.9-4.3,43.5c-0.8,14.6-1.2,29.1-1.2,43.5L209.6,433.4z
					 M250.2,189.9h-2.5c-0.8,3.7-1.6,7.3-2.5,10.8c-0.8,3.5-1.6,7.1-2.5,10.8l-19.1,106.6c-2.5,13.2-5,26.7-7.7,40.7
					c-2.7,14-4,27.7-4,41.3v1.8h2.5c4.5-35.7,9.8-71.2,15.7-106.3C236.2,260.5,242.8,225.3,250.2,189.9z M223.7,435.3
					c-1.2,2.5-2.4,7.4-3.4,14.8c-1,7.4-1.8,15.4-2.5,24s-1.1,16.9-1.5,24.7c-0.4,7.8-0.6,13.6-0.6,17.3c0,2.1,0,3.9,0,5.5
					c0,1.6,0.2,3.5,0.6,5.5c0.8-15.6,1.8-30.9,3.1-45.9C220.7,466.2,222.1,450.9,223.7,435.3z M223.7,424.8h1.2
					c3.3-18.1,6.1-36.1,8.3-53.9c2.3-17.9,4.8-36.1,7.7-54.5l6.8-43.8c1.6-9.9,3.5-19.7,5.5-29.6c2.1-9.9,3.9-19.7,5.5-29.6
					c1.2-8.2,2.8-16.1,4.6-23.7c1.8-7.6,3.8-15.3,5.9-23.1c-1.6,2.5-2.7,4.3-3.1,5.5c-2.5,6.6-4.1,13.3-4.9,20
					c-0.8,6.8-1.8,13.7-3.1,20.6c-2.1,13.2-4.6,26-7.7,38.5c-3.1,12.5-5.7,25.4-7.7,38.5L225,405.7c-0.8,3.3-1.2,6.5-1.2,9.6
					S223.7,421.5,223.7,424.8z M229.9,437.7h-1.2v1.8h1.2V437.7z M229.9,430.3h1.2V426h-1.2V430.3z M234.2,399.5h0.6
					c0-1.2-0.2-2.3-0.6-3.1V399.5z M234.8,390.9h0.6v-4.3h-0.6V390.9z M239.8,504.3h-1.2v11.1h1.2V504.3z M239.8,355.1h1.2v-2.5
					h-1.2V355.1z M241,486.4h-1.2v4.3C240.6,489.9,241,488.5,241,486.4z M241.6,346.5H241l0.6,0.6V346.5z M241,471.6v7.4h0.6v-7.4
					H241z M241.6,464.8h1.2v-6.8h-1.2V464.8z M244.7,441.4h1.2v-6.2h-1.2V441.4z M245.9,430.3h1.2V426h-1.2V430.3z M247.8,415.5
					h-0.6v5.5h0.6V415.5z M252.1,389h-0.6v3.1h0.6V389z M252.1,280.5h1.2v-2.5C252.5,278.9,252.1,279.7,252.1,280.5z M253.3,378.5
					h-1.2v3.7h1.2V378.5z M254.6,370.5h-1.2l1.2,1.8V370.5z M255.2,366.2h1.2l-1.2-1.8V366.2z M257.6,353.9h-1.2v4.3h1.2V353.9z
					 M258.3,347.1h-0.6v2.5h0.6V347.1z M261.9,324.9h-1.2v2.5h1.2V324.9z M263.2,318.1h-1.2v3.1h1.2V318.1z M263.8,312l-0.6,1.2
					l0.6,0.6V312z M267.5,297.8h-1.2v1.8L267.5,297.8z M268.1,291h-0.6v1.8h0.6V291z M269.3,283.6h-1.2c0,1.2,0.4,2.3,1.2,3.1V283.6
					z M270.6,276.2h-1.2l1.2,1.8V276.2z M273.7,264.5v-1.2c-0.8,0-1.2,0.4-1.2,1.2H273.7z M274.3,143.1l-0.6,1.2l0.6,0.6V143.1z
					 M273.7,260.2h0.6v-3.1h-0.6V260.2z M278.6,238.6h-1.2v1.2h1.2V238.6z M281.1,228.8v-1.2h-1.2L281.1,228.8z M283.5,211.5h0.6
					V209h-0.6V211.5z M288.5,188.1l1.2-1.2h-1.2V188.1z M289.7,183.2l0.6-1.2l-0.6-1.2V183.2z"/>
				<path class="st2" d="M345.8,495.7c-2.1,0-3.2,0.8-3.4,2.5c-0.2,1.6-0.5,3.3-0.9,4.9l-3.7,21.6c-4.1,23.4-8,47.2-11.7,71.5
					c-3.7,24.2-5.5,48.3-5.5,72.1c0,2.9,0.4,5.4,1.2,7.7c0.8,2.3,1.2,4.8,1.2,7.7c0,2.1-2.4,3.7-7.1,4.9c-4.7,1.2-7.9,1.8-9.6,1.8
					c-1.6,0-4.5-0.7-8.6-2.2c-4.1-1.4-7.2-2.6-9.2-3.4c-7.4-3.3-11.8-7.8-13.3-13.6c-1.4-5.8-2.2-12.1-2.2-19.1
					c0-18.5,1.4-37.1,4.3-55.8c2.9-18.7,5.5-37.3,8-55.8l17.9-130.1c1.6-11.5,3.5-22.9,5.5-34.2c2.1-11.3,3.1-22.7,3.1-34.2
					c0-6.2-1.3-10.4-4-12.6c-2.7-2.3-4-5-4-8.3c0-2.5,0.9-4,2.8-4.6c1.8-0.6,3.8-0.9,5.9-0.9c3.7,0,7.6,1,11.7,3.1
					c4.1,2.1,8,4.6,11.7,7.7s7.1,6.4,10.2,9.9c3.1,3.5,5.2,6.9,6.5,10.2c2.1,4.9,3.1,10,3.1,15.1c0,5.1,1,10.2,3.1,15.1
					c0.8-0.8,1.6-2.1,2.5-3.7c4.1-7,8.5-13.9,13.3-20.6c4.7-6.8,9.8-13.3,15.1-19.4c3.3-3.7,7.7-7.8,13.3-12.3
					c5.5-4.5,11.5-8.8,17.9-12.9c6.4-4.1,12.7-7.6,19.1-10.5c6.4-2.9,12-4.3,17-4.3c4.9,0,10.1,1.1,15.4,3.4
					c5.3,2.3,10.1,5.2,14.2,8.9c4.1,3.7,7.5,8,10.2,12.9c2.7,4.9,4,10.1,4,15.4c0,2.9-0.4,6.4-1.2,10.5
					c-3.3,13.6-9.1,27.8-17.6,42.8c-8.4,15-18.4,29.4-29.9,43.1c-11.5,13.8-24,26.1-37.6,37c-13.6,10.9-26.7,18.8-39.4,23.7
					c-2.5,0.8-6.5,2.1-12,3.7c-5.5,1.6-9.6,2.5-12,2.5c-0.8,0-1.6-0.2-2.5-0.6C347.4,495.9,346.6,495.7,345.8,495.7z M290.3,588.1
					h-0.6c0,0.4,0.2,0.8,0.6,1.2V588.1z M291.5,580.7l-0.6,0.6h0.6V580.7z M292.8,573.3h-0.6v3.7h0.6V573.3z M294.6,561l-1.8,3.1
					l1.2,0.6c0-0.8,0.1-1.4,0.3-1.8C294.5,562.4,294.6,561.8,294.6,561z M297.7,618.3h0.6v-2.5h-0.6V618.3z M298.9,527.1h0.6v-2.5
					h-0.6V527.1z M301.4,509.2l0.6-0.6h-0.6V509.2z M303.2,500.6h-0.6v1.2C302.6,501.4,302.8,501,303.2,500.6z M302.6,583.2h0.6
					v-2.5h-0.6V583.2z M305.7,562.8h-1.2c0,0.4,0.2,0.8,0.6,1.2C305.1,563.7,305.3,563.2,305.7,562.8z M330.4,474.1h-1.2
					c-0.8,1.6-1.6,5.3-2.5,11.1c-0.8,5.8-1.8,12-2.8,18.8c-1,6.8-2,13.4-2.8,19.7c-0.8,6.4-1.4,11-1.8,13.9c-1.2,7-2.6,15.4-4,25.3
					c-1.4,9.9-3,20-4.6,30.5c-1.6,10.5-3,20.9-4,31.1c-1,10.3-1.5,19.1-1.5,26.5c0,2.1,0.1,4.3,0.3,6.8c0.2,2.5,0.3,4.7,0.3,6.8h1.2
					c0-5.8,0.3-11.5,0.9-17.3c0.6-5.8,1.3-11.5,2.2-17.3c1.6-11.1,3-22.3,4-33.6c1-11.3,2.4-22.5,4-33.6l8-56.7
					c0.8-4.5,1.6-8.9,2.5-13.3c0.8-4.3,1.4-8.7,1.8-13.3V474.1z M309.4,533.9v0.6h0.6L309.4,533.9z M311.3,525.2h-0.6v1.8h0.6V525.2
					z M331.6,464.8l-0.6,0.6h0.6V464.8z M332.2,462.4h0.6v-1.2h-0.6V462.4z M337.1,421.7c0.8,0,1.4,0.2,1.8,0.6v-4.9L337.1,421.7z
					 M340.8,411.2c-1.2,0.8-1.8,1.6-1.8,2.5v3.1L340.8,411.2z M340.8,411.2l-0.6-2.5h-0.6L340.8,411.2z M350.1,450.7
					c2.1-4.1,3.9-8.2,5.5-12.3c1.6-4.1,3.3-8.4,4.9-12.9c4.5-11.9,9.4-23,14.8-33.3c5.3-10.3,11.1-21,17.3-32.1
					c-0.8,0.8-1.4,1.3-1.8,1.5c-0.4,0.2-0.8,0.7-1.2,1.5c-8.6,13.2-16.4,27.1-23.4,41.9C359.1,419.8,353.8,435,350.1,450.7z
					 M351.3,472.8l0.6,0.6c11.5-5.8,22.9-13,34.2-21.9c11.3-8.8,21.9-18.6,31.7-29.3c9.9-10.7,18.9-21.9,27.1-33.6
					c8.2-11.7,15-23.5,20.3-35.4c2.1-4.9,4.2-10.6,6.5-17c2.3-6.4,3.4-12.4,3.4-18.2c0-4.1-1.4-7.4-4.3-9.9
					c-9.9,2.1-19,5.9-27.4,11.4c-8.4,5.5-16.1,11.8-23.1,18.8c-15.6,15.2-27.6,32.5-36.1,51.8c-8.4,19.3-16.5,38.8-24.3,58.6
					c-1.6,4.1-3.2,8.1-4.6,12C353.9,464.7,352.6,468.7,351.3,472.8z M359.3,390.9c0.8-0.8,2.3-3.2,4.3-7.1c2.1-3.9,3.3-6.5,3.7-7.7
					L359.3,390.9z M380.3,368.1h-0.6v1.2C379.7,368.9,379.9,368.5,380.3,368.1z M444.4,425.4l0.6-1.2l-1.8,1.8L444.4,425.4z
					 M488.8,350.2l-1.8,2.5c-2.1,4.1-4,8.2-5.9,12.3c-1.8,4.1-3.8,8.2-5.9,12.3c-4.1,7.4-8.3,14.5-12.6,21.3
					c-4.3,6.8-8.7,13.7-13.3,20.6c7-8.2,13.6-16.9,19.7-26.2c6.2-9.2,11.1-18.8,14.8-28.7L488.8,350.2z M455.5,386.6
					c-0.8,0.4-2,1.8-3.4,4.3c-1.4,2.5-2.4,4.1-2.8,4.9c1.2-1.6,2.4-3.1,3.4-4.3C453.7,390.3,454.7,388.6,455.5,386.6z M455.5,385.9
					c2.1-2.1,3.7-4.7,4.9-8L455.5,385.9z M462.3,374.8c-0.8,0.8-1.2,1.6-1.2,2.5C461.9,376.5,462.3,375.7,462.3,374.8z M469,361.9
					c-1.2,2.1-2.5,4.2-3.7,6.5c-1.2,2.3-2.3,4.4-3.1,6.5L469,361.9z M475.8,347.1c0-0.4-0.1-0.6-0.3-0.6c-0.2,0-0.3-0.2-0.3-0.6v1.2
					H475.8z M490.6,344H490v1.2c0-0.4,0.1-0.6,0.3-0.6C490.5,344.6,490.6,344.4,490.6,344z"/>
				<path class="st2" d="M546.1,495.7c-2.1,0-3.2,0.8-3.4,2.5c-0.2,1.6-0.5,3.3-0.9,4.9l-3.7,21.6c-4.1,23.4-8,47.2-11.7,71.5
					c-3.7,24.2-5.5,48.3-5.5,72.1c0,2.9,0.4,5.4,1.2,7.7c0.8,2.3,1.2,4.8,1.2,7.7c0,2.1-2.4,3.7-7.1,4.9c-4.7,1.2-7.9,1.8-9.6,1.8
					c-1.6,0-4.5-0.7-8.6-2.2c-4.1-1.4-7.2-2.6-9.2-3.4c-7.4-3.3-11.8-7.8-13.3-13.6c-1.4-5.8-2.2-12.1-2.2-19.1
					c0-18.5,1.4-37.1,4.3-55.8c2.9-18.7,5.5-37.3,8-55.8l17.9-130.1c1.6-11.5,3.5-22.9,5.5-34.2c2.1-11.3,3.1-22.7,3.1-34.2
					c0-6.2-1.3-10.4-4-12.6c-2.7-2.3-4-5-4-8.3c0-2.5,0.9-4,2.8-4.6c1.8-0.6,3.8-0.9,5.9-0.9c3.7,0,7.6,1,11.7,3.1
					c4.1,2.1,8,4.6,11.7,7.7s7.1,6.4,10.2,9.9c3.1,3.5,5.2,6.9,6.5,10.2c2.1,4.9,3.1,10,3.1,15.1c0,5.1,1,10.2,3.1,15.1
					c0.8-0.8,1.6-2.1,2.5-3.7c4.1-7,8.5-13.9,13.3-20.6c4.7-6.8,9.8-13.3,15.1-19.4c3.3-3.7,7.7-7.8,13.3-12.3
					c5.5-4.5,11.5-8.8,17.9-12.9c6.4-4.1,12.7-7.6,19.1-10.5c6.4-2.9,12-4.3,17-4.3c4.9,0,10.1,1.1,15.4,3.4
					c5.3,2.3,10.1,5.2,14.2,8.9c4.1,3.7,7.5,8,10.2,12.9c2.7,4.9,4,10.1,4,15.4c0,2.9-0.4,6.4-1.2,10.5
					c-3.3,13.6-9.1,27.8-17.6,42.8c-8.4,15-18.4,29.4-29.9,43.1c-11.5,13.8-24,26.1-37.6,37c-13.6,10.9-26.7,18.8-39.4,23.7
					c-2.5,0.8-6.5,2.1-12,3.7c-5.5,1.6-9.6,2.5-12,2.5c-0.8,0-1.6-0.2-2.5-0.6C547.7,495.9,546.9,495.7,546.1,495.7z M490.6,588.1
					H490c0,0.4,0.2,0.8,0.6,1.2V588.1z M491.9,580.7l-0.6,0.6h0.6V580.7z M493.1,573.3h-0.6v3.7h0.6V573.3z M494.9,561l-1.8,3.1
					l1.2,0.6c0-0.8,0.1-1.4,0.3-1.8C494.8,562.4,494.9,561.8,494.9,561z M498,618.3h0.6v-2.5H498V618.3z M499.2,527.1h0.6v-2.5h-0.6
					V527.1z M501.7,509.2l0.6-0.6h-0.6V509.2z M503.6,500.6h-0.6v1.2C502.9,501.4,503.1,501,503.6,500.6z M502.9,583.2h0.6v-2.5
					h-0.6V583.2z M506,562.8h-1.2c0,0.4,0.2,0.8,0.6,1.2C505.4,563.7,505.6,563.2,506,562.8z M530.7,474.1h-1.2
					c-0.8,1.6-1.6,5.3-2.5,11.1c-0.8,5.8-1.8,12-2.8,18.8c-1,6.8-2,13.4-2.8,19.7c-0.8,6.4-1.4,11-1.8,13.9c-1.2,7-2.6,15.4-4,25.3
					c-1.4,9.9-3,20-4.6,30.5c-1.6,10.5-3,20.9-4,31.1c-1,10.3-1.5,19.1-1.5,26.5c0,2.1,0.1,4.3,0.3,6.8c0.2,2.5,0.3,4.7,0.3,6.8h1.2
					c0-5.8,0.3-11.5,0.9-17.3c0.6-5.8,1.3-11.5,2.2-17.3c1.6-11.1,3-22.3,4-33.6c1-11.3,2.4-22.5,4-33.6l8-56.7
					c0.8-4.5,1.6-8.9,2.5-13.3c0.8-4.3,1.4-8.7,1.8-13.3V474.1z M509.7,533.9v0.6h0.6L509.7,533.9z M511.6,525.2H511v1.8h0.6V525.2z
					 M531.9,464.8l-0.6,0.6h0.6V464.8z M532.5,462.4h0.6v-1.2h-0.6V462.4z M537.5,421.7c0.8,0,1.4,0.2,1.8,0.6v-4.9L537.5,421.7z
					 M541.2,411.2c-1.2,0.8-1.8,1.6-1.8,2.5v3.1L541.2,411.2z M541.2,411.2l-0.6-2.5h-0.6L541.2,411.2z M550.4,450.7
					c2.1-4.1,3.9-8.2,5.5-12.3c1.6-4.1,3.3-8.4,4.9-12.9c4.5-11.9,9.4-23,14.8-33.3c5.3-10.3,11.1-21,17.3-32.1
					c-0.8,0.8-1.4,1.3-1.8,1.5c-0.4,0.2-0.8,0.7-1.2,1.5c-8.6,13.2-16.4,27.1-23.4,41.9C559.4,419.8,554.1,435,550.4,450.7z
					 M551.6,472.8l0.6,0.6c11.5-5.8,22.9-13,34.2-21.9c11.3-8.8,21.9-18.6,31.7-29.3c9.9-10.7,18.9-21.9,27.1-33.6
					c8.2-11.7,15-23.5,20.3-35.4c2.1-4.9,4.2-10.6,6.5-17c2.3-6.4,3.4-12.4,3.4-18.2c0-4.1-1.4-7.4-4.3-9.9
					c-9.9,2.1-19,5.9-27.4,11.4c-8.4,5.5-16.1,11.8-23.1,18.8c-15.6,15.2-27.6,32.5-36.1,51.8c-8.4,19.3-16.5,38.8-24.3,58.6
					c-1.6,4.1-3.2,8.1-4.6,12C554.2,464.7,552.9,468.7,551.6,472.8z M559.7,390.9c0.8-0.8,2.3-3.2,4.3-7.1c2.1-3.9,3.3-6.5,3.7-7.7
					L559.7,390.9z M580.6,368.1H580v1.2C580,368.9,580.2,368.5,580.6,368.1z M644.7,425.4l0.6-1.2l-1.8,1.8L644.7,425.4z
					 M689.1,350.2l-1.8,2.5c-2.1,4.1-4,8.2-5.9,12.3c-1.8,4.1-3.8,8.2-5.9,12.3c-4.1,7.4-8.3,14.5-12.6,21.3
					c-4.3,6.8-8.7,13.7-13.3,20.6c7-8.2,13.6-16.9,19.7-26.2c6.2-9.2,11.1-18.8,14.8-28.7L689.1,350.2z M655.8,386.6
					c-0.8,0.4-2,1.8-3.4,4.3c-1.4,2.5-2.4,4.1-2.8,4.9c1.2-1.6,2.4-3.1,3.4-4.3C654.1,390.3,655,388.6,655.8,386.6z M655.8,385.9
					c2.1-2.1,3.7-4.7,4.9-8L655.8,385.9z M662.6,374.8c-0.8,0.8-1.2,1.6-1.2,2.5C662.2,376.5,662.6,375.7,662.6,374.8z M669.4,361.9
					c-1.2,2.1-2.5,4.2-3.7,6.5c-1.2,2.3-2.3,4.4-3.1,6.5L669.4,361.9z M676.1,347.1c0-0.4-0.1-0.6-0.3-0.6c-0.2,0-0.3-0.2-0.3-0.6
					v1.2H676.1z M690.9,344h-0.6v1.2c0-0.4,0.1-0.6,0.3-0.6C690.8,344.6,690.9,344.4,690.9,344z"/>
				<path class="st2" d="M792.6,93.2c0.8-2.5,2.3-3.7,4.3-3.7c4.5,0,9,1.5,13.6,4.6c4.5,3.1,8.5,7,12,11.7c3.5,4.7,6.4,9.8,8.6,15.1
					c2.3,5.3,3.4,10.1,3.4,14.2c0,6.2-1.5,15.6-4.6,28.4c-3.1,12.7-6.7,26.2-10.8,40.4c-4.1,14.2-8.2,27.7-12.3,40.7
					c-4.1,12.9-7.2,23.1-9.2,30.5c-2.5,8.2-5.1,16.5-8,25c-2.9,8.4-5.5,16.7-8,25l-33.3,119c-5.8,19.7-10.5,39.9-14.2,60.4
					c-3.7,20.6-5.5,41.1-5.5,61.6c0,5.8,0.5,11.5,1.5,17.3c1,5.7,2.4,11.5,4,17.3c0.8,3.7,1.8,7.5,3.1,11.4
					c1.2,3.9,2.1,7.7,2.5,11.4c-0.8,0-1.8,0.1-2.8,0.3c-1,0.2-2,0.3-2.8,0.3c-8.2,0-15.7-2.5-22.5-7.4c-6.8-4.9-12.4-10.7-17-17.3
					c-5.8-7.8-9.2-16.4-10.5-25.9c-1.2-9.5-1.8-18.9-1.8-28.4c0-18.9,2.3-41.5,6.8-67.8c4.5-26.3,10.1-53.3,16.6-81.1
					c6.6-27.7,13.6-54.6,21-80.7c7.4-26.1,14.2-48.6,20.3-67.5c1.6-5.7,5.2-15.8,10.8-30.2c5.5-14.4,11.2-29.4,17-45
					c5.8-15.6,10.9-29.9,15.4-42.8c4.5-12.9,6.8-21.1,6.8-24.3C797,101.8,795.5,97.7,792.6,93.2z M716.2,527.7
					c0.8-2.1,1.4-4.2,1.8-6.5c0.4-2.3,0.8-4.4,1.2-6.5c1.6-9.4,3.3-18.9,4.9-28.4c1.6-9.4,3.7-18.9,6.2-28.4
					c3.7-14.8,7.3-29.6,10.8-44.4c3.5-14.8,7.3-29.6,11.4-44.4c5.7-21,12-41.6,18.8-61.9s12.6-41,17.6-61.9
					c-1.2,2.1-3.1,6.7-5.5,13.9c-2.5,7.2-5.2,15.7-8.3,25.6s-6.3,20.6-9.6,32.1c-3.3,11.5-6.5,22.5-9.6,33c-3.1,10.5-5.8,20-8,28.7
					c-2.3,8.6-4,14.8-5.2,18.5c-6.2,21.4-11.6,42.9-16.3,64.7C721.6,483.5,718.3,505.5,716.2,527.7z M793.9,231.8
					c-2.1,1.6-3.1,3.9-3.1,6.8L793.9,231.8z M795.7,226.3l-1.2-0.6c-0.4,1.2-0.6,3.3-0.6,6.2L795.7,226.3z M798.8,215.8l-0.6-0.6
					v0.6H798.8z"/>
				<path class="st2" d="M954.7,319.4c2.5,3.3,5,6.4,7.7,9.2c2.7,2.9,5.2,6,7.7,9.2l-4.9,25.9c-0.8,4.1-1.6,8.1-2.5,12
					c-0.8,3.9-1.6,7.9-2.5,12c-2.1,11.1-3.7,22.3-4.9,33.6c-1.2,11.3-2.3,22.5-3.1,33.6c-1.2,13.6-2.4,27-3.4,40.4
					c-1,13.4-2.4,26.8-4,40.4c-1.2,13.1-2.7,26.2-4.3,39.1c-1.6,12.9-3.7,25.8-6.2,38.5c-2.9,14.4-6.6,29.5-11.1,45.3
					c-4.5,15.8-10.2,31.4-17,46.8s-14.7,30-23.7,43.8c-9,13.8-19.1,25.6-30.2,35.4c-5.8,5.3-12.1,9.9-19.1,13.6
					c-7,3.7-14.6,5.5-22.8,5.5c-6.6,0-13-1.2-19.4-3.7c-6.4-2.5-12.2-5.3-17.6-8.6c-8.2-5.3-13.6-12-16-20s-3.7-16.5-3.7-25.6
					c0-7,0.3-14.1,0.9-21.3c0.6-7.2,2-14.1,4-20.6c0.8-3.7,2.7-9.2,5.5-16.6c2.9-7.4,6.2-15.7,9.9-25c3.7-9.2,7.9-18.6,12.6-28
					c4.7-9.5,9.4-18.2,14.2-26.2c4.7-8,9.6-14.5,14.5-19.4c4.9-4.9,9.4-7.4,13.6-7.4c2.9,0,6.9,1.2,12,3.7c5.1,2.5,8.7,4.7,10.8,6.8
					c-9,5.8-15.9,12.7-20.6,21c-4.7,8.2-9.1,17-13.3,26.5c-6.2,14-11.6,27.1-16.3,39.4c-4.7,12.3-8.7,25.9-12,40.7
					c0,0.4-0.1,0.7-0.3,0.9c-0.2,0.2-0.3,0.5-0.3,0.9c-0.8,4.1-1.5,8-2.2,11.7s-0.9,7.6-0.9,11.7c0,7,1,13,3.1,18.2
					c2.1,5.1,3.9,10.8,5.5,17l13.6-11.1c4.1-3.7,8.2-8.2,12.3-13.6c4.1-5.3,7.9-11.1,11.4-17.3c3.5-6.2,6.8-12.3,9.9-18.5
					c3.1-6.2,5.6-11.7,7.7-16.6c14-33.3,24-67.3,30.2-102c6.2-34.7,12.3-69.8,18.5-105.1c2.5-12.7,3.7-25.7,3.7-38.8
					c-2.9,4.9-7.3,11.8-13.3,20.6c-6,8.8-12.5,17.6-19.7,26.2c-7.2,8.6-14.5,16.1-21.9,22.5c-7.4,6.4-14,9.6-19.7,9.6
					c-2.1,0-3.6-0.3-4.6-0.9c-1-0.6-2.6-1.3-4.6-2.2l-6.2-3.1c-9.9-4.9-18-10.2-24.3-15.7c-6.4-5.5-9.6-15.1-9.6-28.7
					c0-12.7,2.3-26.4,6.9-41c4.6-14.6,8.8-28,12.5-40.4c3.4-10.3,6.8-21,10.4-32.1s5.3-22,5.3-32.7c0-3.7-0.3-7.5-0.9-11.4
					c-0.6-3.9-0.9-7.7-0.9-11.4c6.9,1.2,12.8,4.1,17.9,8.6c5.1,4.5,9.2,9.8,12.4,15.7c3.2,6,5.6,12.3,7,19.1
					c1.4,6.8,2.1,13.5,2.1,20c0,18.1-2.3,35.5-6.8,52.4c-4.5,16.9-8.8,33.9-12.9,51.2v6.8c19.7-21,36.6-42.8,50.5-65.6
					c14-22.8,26.9-46.9,38.8-72.4c2.5-5.7,5.4-11.5,8.9-17.3c3.5-5.7,7.3-10.9,11.4-15.4l7.4-6.8l1.2,9.9c-1.2,0.4-1.8,1.2-1.8,2.5
					c0.4-0.8,0.7-1.3,0.9-1.5c0.2-0.2,0.5-0.5,0.9-0.9C952.1,321.6,953.9,320.6,954.7,319.4z M764.3,716.3c0.4-0.4,0.6-1,0.6-1.8
					c0-1.2-0.2-2.1-0.6-2.5V716.3z M765.5,707.1c0-0.4,0.1-0.7,0.3-0.9c0.2-0.2,0.3-0.5,0.3-0.9c0-0.4-0.1-0.6-0.3-0.6
					c-0.2,0-0.3-0.4-0.3-1.2V707.1z M771.7,691c0.8-1.6,1.2-2.9,1.2-3.7c0,0.4-0.2,0.9-0.6,1.5c-0.4,0.6-0.8,1.3-1.2,2.2
					c-0.8,0-1.2,0.8-1.2,2.5c0.8-0.4,1.2-1.2,1.2-2.5H771.7z M772.9,681.2c0,1.6,0.2,2.9,0.6,3.7
					C773.5,682.8,773.3,681.6,772.9,681.2z M776,678.1c0.4-0.4,0.6-1.4,0.6-3.1L776,678.1z M777.2,674.4c0.4-1.2,0.6-2.9,0.6-4.9
					L777.2,674.4z M782.8,661.5c0.4-0.8,0.6-1.8,0.6-3.1c-0.4,0.8-0.8,1.7-1.2,2.8c-0.4,1-1,1.9-1.8,2.8L782.8,661.5z M781.5,709.5
					c0-0.4-0.1-0.7-0.3-0.9c-0.2-0.2-0.3-0.5-0.3-0.9v2.5L781.5,709.5z M790.8,646.7c-3.3,0.8-5.3,1.9-6.2,3.4
					c-0.8,1.4-1.2,3.8-1.2,7.1c0.8-2.1,1.9-3.8,3.4-5.2C788.2,650.5,789.5,648.7,790.8,646.7z M783.4,697.2c1.2,0,1.8-0.6,1.8-1.8
					c0-0.4-0.1-0.8-0.3-1.2c-0.2-0.4-0.3-1-0.3-1.8C783.8,693.9,783.4,695.6,783.4,697.2z M791.4,639.9c-0.4,0.4-0.6,1.4-0.6,3.1
					c0-0.8,0.1-1.4,0.3-1.8C791.3,640.7,791.4,640.3,791.4,639.9c0.8-1.6,1.2-3.1,1.2-4.3C791.8,637.2,791.4,638.7,791.4,639.9z
					 M790.8,679.9c0.4-0.4,0.6-1.2,0.6-2.5C791,677.9,790.8,678.7,790.8,679.9z M795.7,663.9l-1.2,3.1c0,2.1-0.8,4.7-2.5,8l1.8-1.8
					L795.7,663.9z M795.7,634.3c-1.2,0-2.1,0.2-2.5,0.6C794.5,635,795.3,634.7,795.7,634.3z M799.4,626.9c-2.9,0-4.3,1.4-4.3,4.3
					c0,1.2,0.2,2.1,0.6,2.5L799.4,626.9z M798.8,659.6l-1.2,0.6L798.8,659.6z M806.8,613.4c-0.8,0.8-1.4,1.6-1.8,2.5
					c-0.4,0.8-1.2,1.6-2.5,2.5c0.8,0,1.3-0.1,1.5-0.3c0.2-0.2,0.7-0.3,1.5-0.3L806.8,613.4z M803.7,650.4c0-0.4-0.1-0.7-0.3-0.9
					c-0.2-0.2-0.3-0.5-0.3-0.9v2.5L803.7,650.4z M810.5,605.4c-0.4,0.4-0.6,1-0.6,1.8L810.5,605.4z M810.5,603.5l1.2-0.6
					c0-0.8,0.4-1.2,1.2-1.2c-0.8,0-1.6,0.4-2.5,1.2V603.5z M819.7,618.3c-0.4,0.4-0.8,0.6-1.2,0.6c-0.4,0-0.8,0.4-1.2,1.2
					c0.8,0,1.3-0.2,1.5-0.6c0.2-0.4,0.7-0.6,1.5-0.6c0-0.8,0.2-1.6,0.6-2.5c0.4-0.8,0.6-1.6,0.6-2.5L819.7,618.3z M829.6,601.7
					c-0.8,0-1.4,0.4-1.8,1.2c0.8,0,1.2,0.4,1.2,1.2v-1.8C829,601.9,829.2,601.7,829.6,601.7z M851.8,480.9c-0.8,0.8-1.2,1.4-1.2,1.8
					L851.8,480.9z M856.7,500.6c1.2,0,2.3-0.4,3.1-1.2c-0.4,0.4-0.8,0.6-1.2,0.6C858.2,500,857.5,500.2,856.7,500.6z M859.2,712
					c0-0.8,0.2-1.4,0.6-1.8c-0.8,0.8-1.2,1.6-1.2,2.5L859.2,712z M869.7,487c0.8-1.6,1.2-3.3,1.2-4.9c-0.4,0.8-0.9,1.8-1.5,2.8
					c-0.6,1-2.2,2.6-4.6,4.6l-0.6,0.6c-0.8,0.8-1.2,1.4-1.2,1.8c0-0.4,0.3-0.8,0.9-1.2c0.6-0.4,1.1-0.8,1.5-1.2
					c1.2,0,2.1-0.2,2.5-0.6L869.7,487z M868.4,456.2c-0.4,0.4-0.6,1.2-0.6,2.5L868.4,456.2z M867.8,690.4c0.8-1.6,1.5-3.2,2.2-4.6
					c0.6-1.4,1.3-3,2.2-4.6c-0.8,0.8-1.6,2.1-2.5,3.7C868.8,686.5,868.2,688.4,867.8,690.4z M877.7,447.6c0-0.8,0.1-1.5,0.3-2.2
					c0.2-0.6,0.3-1.3,0.3-2.2l2.5-1.2c-1.2,0-2.1,0.2-2.5,0.6l-1.2,4.3l-2.5,1.2c-1.2,1.2-2.3,3.5-3.1,6.8c0.4-1.2,1.2-2.8,2.5-4.6
					C875.2,448.5,876.5,447.6,877.7,447.6z M875.2,673.8c0.8-3.3,1.5-6.7,2.2-10.2c0.6-3.5,1.3-6.9,2.2-10.2l-6.2,20.3
					c-0.8,0.8-1.2,1.8-1.2,3.1c0-0.8,0.4-1.6,1.2-2.5L875.2,673.8z M874.6,731.7c0.4-0.8,0.6-2.1,0.6-3.7
					C874.8,728.8,874.6,730.1,874.6,731.7z M875.8,477.2c0-0.4,0.1-0.8,0.3-1.2c0.2-0.4,0.3-1,0.3-1.8
					C876,474.9,875.8,475.9,875.8,477.2z M878.9,472.8c1.2-0.8,2.1-1.4,2.5-1.8C881,471,880.2,471.6,878.9,472.8z M880.2,720
					c3.7-2.1,7.5-7.7,11.4-17c3.9-9.2,7.5-19.3,10.8-30.2c3.3-10.9,6.1-21.4,8.3-31.4c2.3-10.1,3.8-16.7,4.6-20
					c-0.8,1.2-2.6,5.6-5.2,13.3c-2.7,7.6-5.5,15.8-8.3,24.7c-2.9,8.8-5.7,17.5-8.3,25.9c-2.7,8.4-4.6,14.3-5.9,17.6
					c-1.2,2.9-2.4,5.8-3.4,8.6C883.1,714.3,881.8,717.1,880.2,720z M885.1,435.9c0.4-0.8,0.6-1.5,0.6-2.2s0.4-1.3,1.2-2.2l1.8-1.2
					c-0.4,0.4-0.8,0.6-1.2,0.6c-0.4,0-1,0.2-1.8,0.6c0,0.8-0.1,1.5-0.3,2.2C885.2,434.3,885.1,435,885.1,435.9
					c-0.8,0-1.4,0.1-1.8,0.3c-0.4,0.2-1,0.3-1.8,0.3c-0.4,0.8-0.6,2.1-0.6,3.7c0-0.4,0.1-0.8,0.3-1.2c0.2-0.4,0.3-1,0.3-1.8
					c0.8-0.4,1.5-0.6,2.2-0.6S884.7,436.3,885.1,435.9z M882.6,466.7c0.4-0.4,0.9-0.6,1.5-0.6s1.1-0.4,1.5-1.2l-3.1,1.2
					c-0.8,1.6-1.2,3.1-1.2,4.3c0-0.4,0.2-0.9,0.6-1.5C882.4,468.2,882.6,467.5,882.6,466.7z M884.5,641.1c-0.8,0.8-1.2,1.4-1.2,1.8
					c0,0.8,0.2,1.4,0.6,1.8C884.3,644,884.5,642.8,884.5,641.1z M886.3,634.3c0,0.4-0.1,0.6-0.3,0.6c-0.2,0-0.3,0.2-0.3,0.6v0.6
					c0,0.4,0.2,0.6,0.6,0.6V634.3z M891.2,455c0,0.4-0.1,0.7-0.3,0.9c-0.2,0.2-0.3,0.7-0.3,1.5c-1.6,0-2.5,0.4-2.5,1.2v0.6
					c0.4-0.8,0.8-1.2,1.2-1.2c0.4,0,0.8-0.2,1.2-0.6L891.2,455z M893.7,420.5c0.8-0.4,1.5-0.6,2.2-0.6s1.1-0.4,1.5-1.2
					c-1.2,0-2.1,0.2-2.5,0.6C894.5,419.6,894.1,420.1,893.7,420.5c-0.4,0.8-0.7,1.4-0.9,1.8c-0.2,0.4-0.7,1-1.5,1.8h1.8
					c0-0.8,0.1-1.4,0.3-1.8C893.6,421.9,893.7,421.3,893.7,420.5z M893.1,655.3l-1.8,5.5l1.8-2.5V655.3z M894.3,450.7
					c1.6-0.8,2.5-2.1,2.5-3.7c-0.8,0.8-1.3,1.4-1.5,1.8C895,449.2,894.7,449.8,894.3,450.7z M899.9,410.6c0.4-0.8,0.7-1.4,0.9-1.8
					c0.2-0.4,0.7-1,1.5-1.8l-3.7,3.1c0,0.8-0.1,1.5-0.3,2.2c-0.2,0.6-0.3,1.3-0.3,2.2L899.9,410.6z M901.1,438.3
					c0.8-0.8,1.6-1.4,2.5-1.8l0.6-0.6l1.2-4.3c-0.8,1.6-1.2,3.1-1.2,4.3l-3.1,0.6V438.3z M904.2,400.1c0,0.8-0.1,1.6-0.3,2.5
					c-0.2,0.8-0.3,1.6-0.3,2.5c0.4-0.8,0.6-1.6,0.6-2.5c0-0.8,0.4-1.6,1.2-2.5v-2.5L904.2,400.1z M911.6,391.5
					c-1.2,0.4-2.5,1.2-3.7,2.5L911.6,391.5z M915.9,378.5c0,2.1-0.7,4-2.2,5.9c-1.4,1.8-2.2,4-2.2,6.5c0.8-3.3,2.1-5.5,3.7-6.8
					c0-0.8,0.1-1.7,0.3-2.8C915.8,380.3,915.9,379.4,915.9,378.5z M915.3,620.2c0.8-2.5,1.6-4.5,2.5-6.2c-2.1,0-3.1,0.8-3.1,2.5
					c0,0.8,0.1,1.4,0.3,1.8C915.2,618.7,915.3,619.3,915.3,620.2z M916.5,607.2c0,2.9,0.4,4.9,1.2,6.2L916.5,607.2z"/>
				<path class="st2" d="M1455.8,184.4c4.1,0,8.2,1.8,12.3,5.2c4.1,3.5,7.8,7.6,11.1,12.3c3.3,4.7,6.1,9.7,8.3,14.8
					c2.3,5.1,3.4,9.6,3.4,13.3c0,4.1-1.5,10.2-4.6,18.2c-3.1,8-6.7,16.5-10.8,25.6c-4.1,9-8.2,17.7-12.3,25.9
					c-4.1,8.2-7.2,14.6-9.2,19.1l-20.3,45.6c-11.9,26.3-21.1,53.3-27.4,81.1c-6.4,27.7-11.8,55.8-16.3,84.1
					c-1.2,8.2-2.5,16.2-3.7,24c-1.2,7.8-1.8,15.8-1.8,24c0,14,2.6,26.6,7.7,37.9c5.1,11.3,15.7,18,31.7,20c-2.5,2.9-5.5,5.5-8.9,8
					c-3.5,2.5-7.3,3.7-11.4,3.7c-8.6,0-17-2.1-25-6.2c-8-4.1-14.9-9.2-20.6-15.4c-11.5-11.9-18.8-25.8-21.9-41.6
					c-3.1-15.8-4.6-31.5-4.6-47.2c0-24.2,2.2-48.5,6.5-72.7c4.3-24.2,10.4-48.2,18.2-71.8c7.8-23.6,17.2-46.5,28-68.7
					c10.9-22.2,22.9-43.3,36.1-63.5c4.5-6.6,9.6-13.7,15.1-21.3c5.5-7.6,10-14.9,13.3-21.9c-4.5,4.1-10.2,7.4-17,9.9
					c-6.8,2.5-13,5.3-18.8,8.6c-12.3,7-24.3,14.7-35.7,23.1c-11.5,8.4-22.6,17.4-33.3,26.8c-29.6,26.3-54,54.5-73.3,84.8
					c-19.3,30.2-37.2,63-53.6,98.3c-5.8,11.9-11.1,24-16,36.4c-4.9,12.3-10.3,24.4-16,36.4l-2.5,4.3c-0.8-0.8-2.3-2.1-4.3-3.7h0.6
					c-16.9-6.2-29.4-14.3-37.6-24.3c-8.2-10.1-12.3-24.3-12.3-42.8c0-15.2,1.1-30.3,3.4-45.3c2.3-15,5.4-29.7,9.6-44.1
					c4.1-14.4,8.1-28.9,12-43.5c3.9-14.6,8.1-29.1,12.6-43.5c5.3-18.1,11.4-35.6,18.2-52.7c6.8-17,13.9-34.2,21.3-51.5
					c-9.5,4.5-18.8,8.9-28,13.3c-9.2,4.3-19.2,6.5-29.9,6.5c-6.6,0-13.7-1.6-21.3-4.9c-7.6-3.3-13.7-7.2-18.2-11.7h0.6
					c-1.2-1.6-3.5-4.5-6.8-8.6c-3.3-4.1-4.9-7.2-4.9-9.2c0-2.5,1.6-4.1,4.9-4.9c3.3-0.8,6.4-1.4,9.2-1.8c2.9-0.4,6-1,9.2-1.8
					c8.6-1.6,17.3-3.3,25.9-4.9c8.6-1.6,17.3-3.5,25.9-5.5c9.4-2.1,19-4.4,28.7-7.1c9.7-2.7,19.2-5.6,28.7-8.9
					c4.5-1.6,8.6-4.3,12.3-8c2.1-1.6,4.4-3.9,7.1-6.8c2.7-2.9,5.5-5.6,8.6-8.3c3.1-2.7,6.2-4.9,9.2-6.8c3.1-1.8,6.1-2.8,8.9-2.8
					c1.6,0,3.1,0.6,4.3,1.8c1.2,1.2,2.3,2.3,3.1,3.1l9.9,4.3l-0.6,3.1l4.9,3.1l3.7,0.6l-6.2,6.8l8-1.2l7.4,7.4
					c-0.8,1.2-1.3,2.5-1.5,3.7c-0.2,1.2-0.7,2.3-1.5,3.1c-2.1,3.3-4.2,6.4-6.5,9.2c-2.3,2.9-4.4,6-6.5,9.2
					c-4.5,6.2-8.6,12.2-12.3,18.2c-3.7,6-7.2,12.4-10.5,19.4c-15.6,32.1-30,64.4-43.1,97.1c-13.2,32.7-24.5,66.1-33.9,100.2
					c-0.8,2.1-1.8,5.1-2.8,9.2c-1,4.1-2.1,8.5-3.1,13.3c-1,4.7-2,9-2.8,12.9c-0.8,3.9-1.2,6.7-1.2,8.3v4.3h-0.6l0.6,0.6v-0.6
					c23.8-50.1,51.7-94.8,83.5-134.1c31.8-39.2,72-73,120.5-101.4c3.3-2.1,8-4.7,14.2-8c6.2-3.3,12.5-6.5,19.1-9.6
					c6.6-3.1,12.9-5.7,19.1-8C1447.2,185.5,1452.1,184.4,1455.8,184.4z M1167.4,445.1c0.4-0.8,0.6-2.3,0.6-4.3l-0.6,1.2V445.1z
					 M1172.3,423.5c-2.1,2.1-3.1,4.3-3.1,6.8c0,1.6,0.2,2.9,0.6,3.7c-0.4,0.4-0.6,1.4-0.6,3.1l-0.6,1.2l0.6-0.6l0.6-3.1V434
					L1172.3,423.5z M1173.5,413.7c-0.4,0.4-0.6,1.6-0.6,3.7c0-0.4,0.1-0.6,0.3-0.6c0.2,0,0.3-0.2,0.3-0.6V413.7z M1176,404.4
					c3.3-5.3,5.5-11.1,6.8-17.3c1.2-6.2,2.9-12.1,4.9-17.9c3.3-11.1,6.8-22.2,10.5-33.3s7.4-22,11.1-32.7
					c9.4-27.5,20.2-54.9,32.4-82c12.1-27.1,27.8-51.8,47.2-74c-0.4,0-0.8-0.1-1.2-0.3c-0.4-0.2-0.8-0.3-1.2-0.3
					c-2.1,0-3.9,1.1-5.5,3.4c-1.6,2.3-2.9,4-3.7,5.2c-8.6,12.3-16.6,25-24,37.9c-7.4,12.9-14,26.4-19.7,40.4
					c-11.9,27.9-22.9,56-33,84.1C1190.3,346,1182.2,374.8,1176,404.4l-0.6,0.6c0,0.8-0.1,1.3-0.3,1.5c-0.2,0.2-0.3,0.7-0.3,1.5
					l-1.2,3.7v0.6l0.6-0.6c0-0.8,0.1-1.4,0.3-1.8c0.2-0.4,0.3-1,0.3-1.8l1.2-3.1V404.4z M1180.9,522.2l-1.2,2.5l1.2-1.8V522.2z
					 M1193.3,494.4l-0.6,0.6l-1.8,0.6c0.8,0,1.4-0.2,1.8-0.6h0.6V494.4z M1198.8,477.8c-0.4,0.4-0.6,1.4-0.6,3.1l0.6-0.6V477.8z
					 M1202.5,469.8c-0.4,0-0.6,0.2-0.6,0.6l0.6,0.6V469.8z M1215.4,443.3c-0.4,0.8-0.6,1.8-0.6,3.1l-1.8,0.6c0.8,0,1.4-0.2,1.8-0.6
					h0.6V443.3z M1219.8,434.6c0.4-0.4,0.6-1,0.6-1.8C1220,433.2,1219.8,433.8,1219.8,434.6z M1224.1,427.9l-1.8,0.6v0.6
					L1224.1,427.9z M1228.4,416.8c0.4,0,0.8-0.2,1.2-0.6h-1.2V416.8z M1234.6,408.1c-0.8,0-1.4,0.2-1.8,0.6L1234.6,408.1z
					 M1245,388.4l-1.8,3.7l-1.8,2.5l-1.8,1.2v3.1c-1.2,0.8-1.8,1.6-1.8,2.5l0.6-1.2l1.8-1.2v-3.1l1.8-1.2l1.2-2.5l1.8-2.5V388.4z
					 M1248.1,384.1l-1.8,0.6c-0.4,0.4-0.6,0.8-0.6,1.2L1248.1,384.1z M1248.1,356.4c0-0.4-0.1-0.6-0.3-0.6c-0.2,0-0.3-0.2-0.3-0.6
					c0,0.4-0.2,0.8-0.6,1.2H1248.1z M1252.4,377.9c0.4-0.8,1-2.1,1.8-3.7c0.8-1.6,1.6-2.7,2.5-3.1l-1.8,0.6l-2.5,5.5l-1.8,1.2
					l-1.8,3.7c0.4-0.8,0.8-1.4,1.2-1.8c0.4-0.4,0.8-1,1.2-1.8L1252.4,377.9z M1253.7,345.3c0,1.2-0.8,2.3-2.5,3.1l1.8-0.6
					c0.4-0.4,0.6-0.8,0.6-1.2c0-0.4,0.4-0.8,1.2-1.2H1253.7z M1254.9,166.5c0,0.4-0.2,0.8-0.6,1.2l2.5-2.5L1254.9,166.5z
					 M1260.4,336c-0.4,0.4-0.6,1-0.6,1.8l0.6-1.2l1.2-0.6H1260.4z M1267.2,355.1l-4.9,8l-1.8,1.2l-0.6,1.2l3.1-2.5L1267.2,355.1z
					 M1262.3,334.8l1.8-1.8l-1.2,0.6L1262.3,334.8z M1267.8,325.5c0.4,0,0.6-0.1,0.6-0.3c0-0.2,0.2-0.3,0.6-0.3
					C1268.7,324.9,1268.2,325.1,1267.8,325.5z M1270.3,323.1c1.2-0.4,2.1-1.2,2.5-2.5l3.1-3.1h-1.2l-1.8,3.1L1270.3,323.1z
					 M1274,345.9l-1.8,0.6l-1.8,4.3L1274,345.9z M1276.5,343.4c-0.4,0-0.6,0.2-0.6,0.6L1276.5,343.4z M1433.6,213.4l-0.6,0.6
					c-5.8,2.1-11,4.4-15.7,7.1c-4.7,2.7-9.6,5.5-14.5,8.3c-19.7,11.9-38.8,25.3-57.3,40.1s-35.3,31-50.5,48.7
					c-3.3,3.7-6.5,7.4-9.6,11.1s-5.7,7.8-7.7,12.3l-1.2,1.2c0.4,0,0.6-0.1,0.6-0.3c0-0.2,0.2-0.3,0.6-0.3v-0.6
					c5.7-4.5,10.8-9.8,15.1-15.7c4.3-6,8.7-11.6,13.3-17c11.9-14,26.3-27.4,43.1-40.4c16.8-12.9,33.1-24.1,48.7-33.6
					c5.7-3.3,11.8-6.5,18.2-9.6c6.4-3.1,12-6.9,17-11.4h0.6V213.4z M1276.5,316.9c0.4-1.2,1.2-2.1,2.5-2.5c0-0.8,0.6-1.8,1.8-3.1
					l2.5-2.5l1.2-1.2c0-0.8,0.6-1.8,1.8-3.1c0.4,0,0.6-0.2,0.6-0.6c1.6,0,3.4-0.9,5.2-2.8c1.8-1.8,3.2-3.4,4-4.6l1.8-3.1v-0.6
					l-1.8,3.1v0.6c-2.5,0.4-4.2,1.3-5.2,2.8c-1,1.4-2.4,3-4,4.6l-0.6,0.6l-1.8,1.2c-0.8,1.6-1.2,2.7-1.2,3.1l-1.8,0.6l-0.6,1.8
					l-1.8,1.2c0,0.4-0.6,1.2-1.8,2.5L1276.5,316.9z M1289.4,157.3c0,0.4,0.2,0.6,0.6,0.6L1289.4,157.3z M1299.3,291.6l3.1-3.1
					l-2.5,1.8L1299.3,291.6z M1306.1,285.5l1.2-1.2v-0.6L1306.1,285.5z M1310.4,281.2l4.3-3.7l-1.8,0.6L1310.4,281.2z M1314.1,289.2
					c-0.4,0-0.8,0.2-1.2,0.6c0.4,0,0.6-0.1,0.6-0.3C1313.5,289.3,1313.7,289.2,1314.1,289.2z M1319,284.9c-1.6,0.8-2.9,1.6-3.7,2.5
					L1319,284.9z M1319,302.1h-0.6c0,0.4-0.1,0.6-0.3,0.6c-0.2,0-0.3,0.2-0.3,0.6L1319,302.1z M1319.6,284.2l3.7-4.3v-0.6h-0.6
					l-2.5,3.1L1319.6,284.2z M1325.8,266.4c-0.8,1.2-1.8,2.3-2.8,3.1c-1,0.8-2,1.6-2.8,2.5l1.8-0.6c0.8-0.8,2.1-2.1,3.7-3.7
					c1.6-1.6,2.9-2.9,3.7-3.7L1325.8,266.4z M1328.9,274.4c0.8,0,1.4-0.2,1.8-0.6h-1.8l-1.2,1.8L1328.9,274.4z M1328.2,279.9
					c0,0.4-0.2,0.8-0.6,1.2l1.2-1.2H1328.2z M1332.6,271.9l1.2-1.8h-0.6L1332.6,271.9z M1335,286.7h-0.6v0.6L1335,286.7z
					 M1339.3,265.7c-1.2,0.8-2.1,1.5-2.5,2.2c-0.4,0.6-1,1.3-1.8,2.2h1.2L1339.3,265.7z M1337.5,271.9l0.6,0.6v-0.6H1337.5z
					 M1338.7,270.1c0,0.8-0.2,1.2-0.6,1.2c0.4,0,0.6-0.1,0.6-0.3c0-0.2,0.2-0.3,0.6-0.3v-0.6H1338.7z M1338.7,256.5l1.8-1.2
					l-1.8,0.6V256.5z M1341.8,291.6v0.6l-1.8,1.8v-0.6l1.2-1.8H1341.8z M1342.4,263.3c0.8-0.8,1.8-1.2,3.1-1.2l1.2-2.5l-1.2,1.8
					l-2.5,0.6L1342.4,263.3z M1344.9,278.7l1.2-1.2h-0.6c0,0.4-0.1,0.6-0.3,0.6C1345,278.1,1344.9,278.3,1344.9,278.7z
					 M1348.6,259.6h0.6l0.6-1.2L1348.6,259.6z M1349.8,284.9v0.6c-0.4,0-0.8,0.2-1.2,0.6c0.4-0.4,0.6-0.8,0.6-1.2H1349.8z
					 M1350.4,257.1l1.2-1.2c0.4,0,0.8-0.2,1.2-0.6l-1.8,0.6L1350.4,257.1z M1354.1,255.3l1.8-2.5h-1.2L1354.1,255.3z M1354.1,281.8
					c0-0.4,0.2-0.6,0.6-0.6L1354.1,281.8z M1356,257.1c-0.4,0.4-0.6,0.8-0.6,1.2l0.6-0.6V257.1z M1356.6,252.8h1.2v-1.2
					L1356.6,252.8z M1361.5,249.7c-0.8,0-1.4,0.2-1.8,0.6L1361.5,249.7z M1372,241.7c0.4,0,0.8-0.2,1.2-0.6h-1.2V241.7z M1376.3,230
					l3.1-2.5c-0.4,0.4-0.8,0.6-1.2,0.6L1376.3,230z M1377.6,237.4c1.2,0,2.1-0.2,2.5-0.6C1378.8,236.8,1378,237,1377.6,237.4z
					 M1381.3,239.9c-0.4,0-0.8,0.2-1.2,0.6C1380.4,240.5,1380.8,240.3,1381.3,239.9z M1381.9,234.3c-0.4,0.4-0.6,0.8-0.6,1.2
					l1.8-1.2H1381.9z M1383.7,259.6l0.6,0.6h-0.6V259.6z M1389.3,222l-2.5,1.2C1387.6,222.4,1388.4,222,1389.3,222z M1386.8,233.1
					l0.6-0.6h-0.6V233.1z M1394.8,218.3h0.6l1.8-1.2l-1.8,0.6L1394.8,218.3z M1410.8,208.4c-1.6,1.2-3.3,2.4-4.9,3.4
					c-1.6,1-3.5,2.2-5.5,3.4c2.1-0.8,3.9-1.8,5.5-3.1c1.6-1.2,3.5-2.5,5.5-3.7H1410.8z M1413.9,227.5c0.4,0,0.8-0.2,1.2-0.6
					c-0.4,0-0.6,0.1-0.6,0.3C1414.5,227.4,1414.3,227.5,1413.9,227.5h-0.6l-0.6,0.6C1413.1,228.2,1413.5,227.9,1413.9,227.5z
					 M1413.9,207.2c0.8,0,1.6-0.4,2.5-1.2l4.9-2.5c-0.8,0-1.6,0.3-2.5,0.9c-0.8,0.6-1.6,1.1-2.5,1.5L1413.9,207.2z M1427.5,201
					l2.5-1.8h-0.6L1427.5,201z"/>
				<path class="st2" d="M1507.6,363.1l11.1,4.9c3.7-4.9,7.9-10.5,12.6-16.6c4.7-6.2,9.9-12.1,15.4-17.9
					c5.5-5.7,11.4-10.6,17.6-14.5c6.2-3.9,12.7-5.9,19.7-5.9c6.6,0,13.3,1.8,20.3,5.5c7,3.7,13.3,8.4,18.8,14.2
					c5.5,5.8,10.1,12.1,13.6,19.1c3.5,7,5.2,13.8,5.2,20.3c0,12.3-2.3,25.1-6.8,38.2c-4.5,13.2-10.3,26-17.3,38.5
					c-7,12.5-15,24.3-24,35.1c-9,10.9-17.9,20.4-26.5,28.7c-5.3,4.9-10.7,9.2-16,12.9c-5.3,3.7-11.7,6.2-19.1,7.4
					c-2.1,0.4-4.2,0.7-6.5,0.9c-2.3,0.2-4.4,0.3-6.5,0.3c-9.9,0-18.9-1.8-27.1-5.5c-8.2-3.7-15.3-8.7-21.3-15.1
					c-6-6.4-10.6-13.9-13.9-22.5c-3.3-8.6-4.9-17.7-4.9-27.1v-7.4c0-6.2,1.5-14.6,4.6-25.3c3.1-10.7,7.1-21.1,12-31.1
					c4.9-10.1,10.8-18.8,17.6-26.2C1493.1,366.8,1500.2,363.1,1507.6,363.1z M1486.6,388.4l9.9-11.1c-2.5,1.2-4.4,2.9-5.9,4.9
					C1489.2,384.3,1487.9,386.4,1486.6,388.4z M1492.2,422.9h-1.2v1.2L1492.2,422.9z M1496.5,505.5c14-3.7,27.1-10.6,39.4-20.6
					c12.3-10.1,23.2-21.7,32.7-34.8c9.4-13.1,17.5-27.2,24-42.2c6.6-15,11.1-29.3,13.6-42.8c0.4-2.1,0.8-4.1,1.2-6.2
					c0.4-2.1,0.6-4.1,0.6-6.2c0-2.9-0.6-5.5-1.8-8c-4.9,0-11,2.8-18.2,8.3c-7.2,5.5-14.1,12.1-20.6,19.7c-6.6,7.6-12.2,15.4-17,23.4
					c-4.7,8-7.1,14.5-7.1,19.4c0,5.8,2.9,10.7,8.6,14.8c-1.6,2.5-3.7,3.7-6.2,3.7c-8.6,0-15.4-2.8-20.3-8.3
					c-4.9-5.5-9.7-11.2-14.2-17c-4.5,11.5-8.6,23.1-12.3,34.8c-3.7,11.7-5.5,23.7-5.5,36.1c0,4.5,0.2,8.8,0.6,12.9
					C1494.4,496.7,1495.3,501,1496.5,505.5z M1510.7,386.6l0.6-1.2c-4.1,4.1-7.4,8.6-9.9,13.6s-4.7,10.1-6.8,15.4
					c0.8-1.2,2.1-3.1,3.7-5.5c1.6-2.5,3.4-5.2,5.2-8.3c1.8-3.1,3.5-5.9,4.9-8.3C1510,389.6,1510.7,387.8,1510.7,386.6z
					 M1497.1,390.9c2.9-2.1,4.7-4.9,5.5-8.6L1497.1,390.9z M1534.7,363.8c0.4-1.2,1.8-3.3,4.3-6.2c2.5-2.9,5.2-5.9,8.3-8.9
					c3.1-3.1,6.1-6.1,8.9-8.9c2.9-2.9,4.9-4.9,6.2-6.2h-1.2c-10.7,9-20.1,19.5-28.4,31.4L1534.7,363.8z M1539,392.7
					c6.2-8.2,12.2-16.2,18.2-24c6-7.8,12.4-15.2,19.4-22.2v-0.6h-0.6c-0.4,0-0.6,0.1-0.6,0.3c0,0.2-0.2,0.3-0.6,0.3
					c-3.3,2.5-6.9,5.5-10.8,8.9c-3.9,3.5-7.5,7.4-10.8,11.7c-3.3,4.3-6.3,8.6-8.9,12.9C1541.6,384.4,1539.9,388.6,1539,392.7z
					 M1542.7,368.7c1.6-2.5,3.4-4.7,5.2-6.8c1.8-2.1,3.6-4.1,5.2-6.2c-1.2,1.2-3.3,3.4-6.2,6.5
					C1544.2,365.3,1542.7,367.5,1542.7,368.7z M1613.6,427.9c-5.8,11.1-12.2,21.7-19.4,31.7c-7.2,10.1-14.7,20-22.5,29.9
					c-0.8,0.8-1.5,1.8-2.2,2.8c-0.6,1-1.1,2.2-1.5,3.4c2.9-3.7,7-8.3,12.3-13.9c5.3-5.5,10.5-11.6,15.4-18.2
					c4.9-6.6,9.1-12.9,12.6-19.1C1611.9,438.3,1613.6,432.8,1613.6,427.9z M1569.2,464.8c2.9-2.5,5.3-5.3,7.4-8.6
					c2.1-3.3,4.1-6.8,6.2-10.5c-1.6,2.1-4.3,5.5-8,10.2C1571.1,460.6,1569.2,463.6,1569.2,464.8z M1572.3,475.9l-0.6-0.6
					C1571.7,475.7,1571.9,475.9,1572.3,475.9z M1579.1,468.5c2.1-3.3,4.3-6.6,6.8-9.9c2.5-3.3,4.7-6.6,6.8-9.9l-14.2,19.1v0.6
					H1579.1z M1593.3,447c-0.4,0.4-0.6,1-0.6,1.8L1593.3,447z M1602.5,462.4h0.6v-0.6L1602.5,462.4z"/>
				<path class="st2" d="M1857.1,252.2c9.4,2.1,17.2,6.1,23.1,12c6,6,10.6,12.9,13.9,21c3.3,8,5.5,16.4,6.8,25.3
					c1.2,8.8,1.8,17.4,1.8,25.6c0,8.2-0.8,19.1-2.5,32.7c-1.6,13.6-4.2,28.2-7.7,43.8c-3.5,15.6-7.8,31.2-12.9,46.8
					c-5.1,15.6-11.2,29.8-18.2,42.5c-7,12.7-15,23.1-24,31.1c-9,8-18.9,12-29.6,12c-2.9,0-4.9-0.2-6.2-0.6
					c-14.4-3.3-23.3-9.1-26.8-17.6c-3.5-8.4-5.2-19.2-5.2-32.4c0-10.7,0.4-21.4,1.2-32.1c0.8-10.7,1.2-21.4,1.2-32.1
					c-8.2,11.9-16.7,23.9-25.6,36.1c-8.8,12.1-18,23.7-27.4,34.8c-7.8,9.9-17.5,14.8-29,14.8c-4.9,0-9.9-0.9-14.8-2.8
					c-4.9-1.8-9.4-4.4-13.3-7.7c-3.9-3.3-7.2-7.1-9.9-11.4c-2.7-4.3-4-9.1-4-14.5c0-6.6,1.4-15,4.3-25.3
					c2.9-10.3,6.3-21.2,10.2-32.7c3.9-11.5,7.9-22.6,12-33.3c4.1-10.7,7.2-19.5,9.2-26.5c1.2-3.7,2.1-7.5,2.5-11.4
					c0.4-3.9,0.6-7.7,0.6-11.4c0-1.6-0.3-3.5-0.9-5.5c-0.6-2.1-1.1-3.9-1.5-5.5c0.8,0,1.8-0.1,3.1-0.3c1.2-0.2,2.3-0.3,3.1-0.3
					c3.7,0,7.9,1.8,12.6,5.2c4.7,3.5,8.5,6.5,11.4,8.9c4.5,4.5,7.8,9,9.9,13.6c2.1,4.5,3.1,10.1,3.1,16.6c0,14.8-2.9,29-8.6,42.5
					c-5.8,13.6-10.7,27.3-14.8,41.3c-0.8,3.3-1.6,5.8-2.5,7.4v1.2c4.5-4.5,9.1-9.4,13.9-14.8c4.7-5.3,9.1-10.5,13.3-15.4
					c1.2-1.6,4.2-5.6,8.9-12c4.7-6.4,9.8-13.3,15.1-20.6c5.3-7.4,10.2-14.1,14.5-20c4.3-6,6.7-9.3,7.1-10.2l-6.8-8.6
					c0-2.1,0.7-3.3,2.1-3.7c1.4-0.4,2.9-0.6,4.6-0.6c9.3,0,17.7,3.7,25.2,11.1c7.5,7.4,11.9,15.6,13.1,24.7
					c0.8,5.8,1.3,11.6,1.5,17.6c0.2,6,0.3,11.8,0.3,17.6c0,16.4-1.2,32.7-3.7,48.7c-0.8,6.6-1.7,12.9-2.7,19.1
					c-1,6.2-1.5,12.5-1.5,19.1v3.7c9.9-7.4,19-19.8,27.3-37.3c8.3-17.5,15.4-36.4,21.4-56.7c6-20.3,10.7-40.4,14-60.1
					c3.3-19.7,5-35.7,5-48.1c0-19.3-4.3-37.4-12.9-54.2c-0.8-1.6-1.5-3.2-2.2-4.6c-0.6-1.4-1.3-3-2.2-4.6V252.2z M1681.4,472.2
					c1.6-1.6,3.5-4.9,5.5-9.9c2.1-4.9,4-10.2,5.9-15.7c1.8-5.5,3.6-11,5.2-16.3c1.6-5.3,3.1-9.4,4.3-12.3l-1.8-0.6
					c-3.3,9.5-6.5,18.7-9.6,27.7C1687.9,454.2,1684.7,463.2,1681.4,472.2z M1728.9,472.8c2.1-2.5,5.4-6.7,10.2-12.6
					c4.7-6,9.5-12.3,14.5-19.1c4.9-6.8,9.3-13,13.2-18.8c3.9-5.7,6.3-9.6,7.1-11.7h-0.6c-7.8,10.3-15.3,20.6-22.5,31.1
					S1736.3,462.6,1728.9,472.8z M1740,446.3c0-0.4-0.2-0.6-0.6-0.6L1740,446.3z M1748,432.8c-0.4,0.4-0.6,1.2-0.6,2.5
					C1747.8,434.8,1748,434,1748,432.8z M1752.3,415.5c-1.2,1.2-1.8,2.1-1.8,2.5L1752.3,415.5z M1754.1,426.6h0.6V426L1754.1,426.6z
					 M1768.3,428.5l-0.6,0.6h0.6V428.5z M1770.8,390.3c0.4-0.8,0.9-1.5,1.5-2.2s1.3-1.3,2.2-2.2l-1.2-0.6c-0.4,0.8-0.9,1.6-1.5,2.5
					C1771.1,388.6,1770.8,389.4,1770.8,390.3z M1800.6,464.2h-1.2l-3.7,27.7c0,4.1-0.2,7.2-0.6,9.2h1.8l-1.2-9.2l1.8-1.2
					L1800.6,464.2z M1841.7,485.8l-0.6-0.6v1.8L1841.7,485.8z M1850.3,464.8c-0.8,1.2-1.6,3.1-2.5,5.5L1850.3,464.8z M1863.2,424.2
					c-1.2,4.5-2.8,9.1-4.6,13.9c-1.8,4.7-3.2,9.4-4,13.9c1.6-3.7,3-7.5,4-11.4c1-3.9,2.4-7.7,4-11.4L1863.2,424.2z M1876.2,437.7
					c3.3-10.7,6.3-21.4,8.9-32.1c2.7-10.7,4.4-21.6,5.2-32.7l-1.2,1.2c-3.7,20.1-8.3,40-13.9,59.5c-5.5,19.5-12.2,38.9-20,58.2
					c1.6-1.6,3.5-4.9,5.5-9.9c2.1-4.9,4.1-10.2,6.2-15.7c2.1-5.5,3.9-11,5.5-16.3C1874.1,444.7,1875.4,440.6,1876.2,437.7z
					 M1863.9,448.8h0.6c0-0.4-0.2-0.6-0.6-0.6V448.8z M1868.2,406.3c-0.8,2.5-1.2,4.1-1.2,4.9L1868.2,406.3z M1869.4,430.3h0.6v-2.5
					l1.2-0.6v-0.6l-1.8,1.2V430.3z M1873.7,387.2c-2.1,1.2-3.1,2.8-3.1,4.6c0,1.8-0.2,3.8-0.6,5.9L1873.7,387.2l1.2-6.8
					c-1.2,0.8-1.8,1.6-1.8,2.5c0,0.8,0.1,1.5,0.3,2.2C1873.6,385.6,1873.7,386.4,1873.7,387.2z M1871.9,421.1v0.6
					c0.4,0,0.6-0.2,0.6-0.6H1871.9z M1874.3,375.5c0,1.6,0.2,2.9,0.6,3.7v-3.7H1874.3z M1875.6,366.8c0.4,0.4,0.6,1,0.6,1.8h0.6
					l-0.6-1.8H1875.6z M1878,448.8l-0.6-0.6v0.6H1878z M1880.5,438.9l-0.6,0.6h0.6V438.9z M1890.4,371.1c0.4-1.2,0.7-2.4,0.9-3.4
					c0.2-1,0.3-2.2,0.3-3.4h-1.2V371.1z M1892.8,358.2v-3.1h-1.2c0.4,0.4,0.6,1.4,0.6,3.1H1892.8z"/>
			</g>
		</g>
	</g>
</g>
</svg>
